<?xml version="1.0" standalone="no"?>
<!DOCTYPE svg PUBLIC "-//W3C//DTD SVG 20010904//EN"
 "http://www.w3.org/TR/2001/REC-SVG-20010904/DTD/svg10.dtd">
<svg version="1.0" xmlns="http://www.w3.org/2000/svg"
 width="221.000000pt" height="122.000000pt" viewBox="0 0 221.000000 122.000000"
 preserveAspectRatio="xMidYMid meet">

<g transform="translate(0.000000,122.000000) scale(0.100000,-0.100000)"
fill="#000000" stroke="none">
<path d="M740 694 c0 -125 79 -219 195 -231 43 -5 56 -3 51 6 -4 6 -12 9 -17
6 -5 -4 -9 22 -9 62 0 103 -3 109 -61 116 -66 8 -117 34 -140 71 l-19 31 0
-61z"/>
<path d="M978 643 c7 -3 16 -2 19 1 4 3 -2 6 -13 5 -11 0 -14 -3 -6 -6z"/>
<path d="M1174 441 c3 -4 19 -11 35 -14 17 -4 62 -22 101 -41 70 -35 82 -28
31 18 -29 27 -181 61 -167 37z"/>
<path d="M741 204 l-1 -46 47 7 c52 8 103 30 103 45 0 6 -7 10 -15 10 -8 0
-15 -4 -15 -10 0 -5 -7 -10 -15 -10 -8 0 -15 5 -15 10 0 6 -11 10 -24 10 -14
0 -31 7 -40 15 -21 22 -23 20 -25 -31z"/>
</g>
</svg>
